<mxfile host="65bd71144e">
    <diagram id="gEM2mY6XV3RI86AcLjMt" name="Purpose">
        <mxGraphModel dx="696" dy="575" grid="1" gridSize="10" guides="1" tooltips="1" connect="1" arrows="1" fold="1" page="1" pageScale="1" pageWidth="827" pageHeight="1169" math="0" shadow="0">
            <root>
                <mxCell id="0"/>
                <mxCell id="1" parent="0"/>
                <mxCell id="2" value="" style="shape=actor;whiteSpace=wrap;html=1;" vertex="1" parent="1">
                    <mxGeometry x="290" y="460" width="90" height="100" as="geometry"/>
                </mxCell>
                <mxCell id="3" value="Books" style="ellipse;shape=cloud;whiteSpace=wrap;html=1;" vertex="1" parent="1">
                    <mxGeometry x="70" y="390" width="120" height="80" as="geometry"/>
                </mxCell>
                <mxCell id="4" value="Author" style="ellipse;shape=cloud;whiteSpace=wrap;html=1;" vertex="1" parent="1">
                    <mxGeometry x="280" y="290" width="120" height="80" as="geometry"/>
                </mxCell>
                <mxCell id="5" value="Genre" style="ellipse;shape=cloud;whiteSpace=wrap;html=1;" vertex="1" parent="1">
                    <mxGeometry x="500" y="370" width="120" height="80" as="geometry"/>
                </mxCell>
            </root>
        </mxGraphModel>
    </diagram>
    <diagram id="cJHpJPs7GVeag3cebvLs" name="ER">
        <mxGraphModel dx="1647" dy="1744" grid="1" gridSize="10" guides="1" tooltips="1" connect="1" arrows="1" fold="1" page="1" pageScale="1" pageWidth="827" pageHeight="1169" math="0" shadow="0">
            <root>
                <mxCell id="5D2Kj8GLupfcrIQceNHM-0"/>
                <mxCell id="5D2Kj8GLupfcrIQceNHM-1" parent="5D2Kj8GLupfcrIQceNHM-0"/>
                <mxCell id="5D2Kj8GLupfcrIQceNHM-22" style="edgeStyle=none;html=1;entryX=1;entryY=0.75;entryDx=0;entryDy=0;entryPerimeter=0;endArrow=classic;endFill=1;" edge="1" parent="5D2Kj8GLupfcrIQceNHM-1" source="5D2Kj8GLupfcrIQceNHM-3" target="5D2Kj8GLupfcrIQceNHM-16">
                    <mxGeometry relative="1" as="geometry"/>
                </mxCell>
                <mxCell id="5D2Kj8GLupfcrIQceNHM-23" style="edgeStyle=none;html=1;entryX=0.932;entryY=0.783;entryDx=0;entryDy=0;entryPerimeter=0;endArrow=classic;endFill=1;" edge="1" parent="5D2Kj8GLupfcrIQceNHM-1" source="5D2Kj8GLupfcrIQceNHM-3" target="5D2Kj8GLupfcrIQceNHM-18">
                    <mxGeometry relative="1" as="geometry"/>
                </mxCell>
                <mxCell id="5D2Kj8GLupfcrIQceNHM-24" style="edgeStyle=none;html=1;exitX=0.5;exitY=0;exitDx=0;exitDy=0;endArrow=classic;endFill=1;" edge="1" parent="5D2Kj8GLupfcrIQceNHM-1" source="5D2Kj8GLupfcrIQceNHM-3" target="5D2Kj8GLupfcrIQceNHM-19">
                    <mxGeometry relative="1" as="geometry">
                        <mxPoint x="230" y="-80" as="targetPoint"/>
                        <Array as="points">
                            <mxPoint x="230" y="10"/>
                        </Array>
                    </mxGeometry>
                </mxCell>
                <mxCell id="5D2Kj8GLupfcrIQceNHM-25" style="edgeStyle=none;html=1;entryX=0.068;entryY=0.808;entryDx=0;entryDy=0;entryPerimeter=0;endArrow=classic;endFill=1;" edge="1" parent="5D2Kj8GLupfcrIQceNHM-1" source="5D2Kj8GLupfcrIQceNHM-3" target="5D2Kj8GLupfcrIQceNHM-20">
                    <mxGeometry relative="1" as="geometry"/>
                </mxCell>
                <mxCell id="5D2Kj8GLupfcrIQceNHM-26" style="edgeStyle=none;html=1;entryX=0;entryY=0.5;entryDx=0;entryDy=0;endArrow=classic;endFill=1;" edge="1" parent="5D2Kj8GLupfcrIQceNHM-1" source="5D2Kj8GLupfcrIQceNHM-3" target="5D2Kj8GLupfcrIQceNHM-21">
                    <mxGeometry relative="1" as="geometry"/>
                </mxCell>
                <mxCell id="5D2Kj8GLupfcrIQceNHM-3" value="Book" style="rounded=0;whiteSpace=wrap;html=1;" vertex="1" parent="5D2Kj8GLupfcrIQceNHM-1">
                    <mxGeometry x="170" y="30" width="120" height="60" as="geometry"/>
                </mxCell>
                <mxCell id="5D2Kj8GLupfcrIQceNHM-29" style="edgeStyle=none;html=1;entryX=1;entryY=0.5;entryDx=0;entryDy=0;endArrow=classic;endFill=1;" edge="1" parent="5D2Kj8GLupfcrIQceNHM-1" source="5D2Kj8GLupfcrIQceNHM-4" target="5D2Kj8GLupfcrIQceNHM-27">
                    <mxGeometry relative="1" as="geometry"/>
                </mxCell>
                <mxCell id="5D2Kj8GLupfcrIQceNHM-31" style="edgeStyle=none;html=1;endArrow=classic;endFill=1;" edge="1" parent="5D2Kj8GLupfcrIQceNHM-1" source="5D2Kj8GLupfcrIQceNHM-4" target="5D2Kj8GLupfcrIQceNHM-30">
                    <mxGeometry relative="1" as="geometry"/>
                </mxCell>
                <mxCell id="5D2Kj8GLupfcrIQceNHM-33" style="edgeStyle=none;html=1;endArrow=classic;endFill=1;" edge="1" parent="5D2Kj8GLupfcrIQceNHM-1" source="5D2Kj8GLupfcrIQceNHM-4" target="5D2Kj8GLupfcrIQceNHM-32">
                    <mxGeometry relative="1" as="geometry"/>
                </mxCell>
                <mxCell id="5D2Kj8GLupfcrIQceNHM-4" value="Author" style="rounded=0;whiteSpace=wrap;html=1;" vertex="1" parent="5D2Kj8GLupfcrIQceNHM-1">
                    <mxGeometry x="170" y="250" width="120" height="60" as="geometry"/>
                </mxCell>
                <mxCell id="5D2Kj8GLupfcrIQceNHM-5" value="Genre" style="rounded=0;whiteSpace=wrap;html=1;" vertex="1" parent="5D2Kj8GLupfcrIQceNHM-1">
                    <mxGeometry x="170" y="492" width="120" height="60" as="geometry"/>
                </mxCell>
                <mxCell id="5D2Kj8GLupfcrIQceNHM-14" style="edgeStyle=none;html=1;exitX=0.5;exitY=0;exitDx=0;exitDy=0;entryX=0.5;entryY=1;entryDx=0;entryDy=0;endArrow=ERmany;endFill=0;" edge="1" parent="5D2Kj8GLupfcrIQceNHM-1" source="5D2Kj8GLupfcrIQceNHM-6" target="5D2Kj8GLupfcrIQceNHM-4">
                    <mxGeometry relative="1" as="geometry"/>
                </mxCell>
                <mxCell id="5D2Kj8GLupfcrIQceNHM-15" style="edgeStyle=none;html=1;exitX=0.5;exitY=1;exitDx=0;exitDy=0;endArrow=ERmany;endFill=0;" edge="1" parent="5D2Kj8GLupfcrIQceNHM-1" source="5D2Kj8GLupfcrIQceNHM-6" target="5D2Kj8GLupfcrIQceNHM-5">
                    <mxGeometry relative="1" as="geometry"/>
                </mxCell>
                <mxCell id="5D2Kj8GLupfcrIQceNHM-6" value="belong" style="rhombus;whiteSpace=wrap;html=1;" vertex="1" parent="5D2Kj8GLupfcrIQceNHM-1">
                    <mxGeometry x="190" y="356" width="80" height="80" as="geometry"/>
                </mxCell>
                <mxCell id="5D2Kj8GLupfcrIQceNHM-9" value="" style="edgeStyle=none;html=1;endArrow=ERmany;endFill=0;" edge="1" parent="5D2Kj8GLupfcrIQceNHM-1" source="5D2Kj8GLupfcrIQceNHM-7" target="5D2Kj8GLupfcrIQceNHM-4">
                    <mxGeometry relative="1" as="geometry"/>
                </mxCell>
                <mxCell id="5D2Kj8GLupfcrIQceNHM-13" style="edgeStyle=none;html=1;exitX=0.5;exitY=0;exitDx=0;exitDy=0;entryX=0.5;entryY=1;entryDx=0;entryDy=0;endArrow=ERmany;endFill=0;" edge="1" parent="5D2Kj8GLupfcrIQceNHM-1" source="5D2Kj8GLupfcrIQceNHM-7" target="5D2Kj8GLupfcrIQceNHM-3">
                    <mxGeometry relative="1" as="geometry"/>
                </mxCell>
                <mxCell id="5D2Kj8GLupfcrIQceNHM-7" value="written by" style="rhombus;whiteSpace=wrap;html=1;" vertex="1" parent="5D2Kj8GLupfcrIQceNHM-1">
                    <mxGeometry x="190" y="128" width="80" height="80" as="geometry"/>
                </mxCell>
                <mxCell id="5D2Kj8GLupfcrIQceNHM-16" value="Title" style="ellipse;whiteSpace=wrap;html=1;" vertex="1" parent="5D2Kj8GLupfcrIQceNHM-1">
                    <mxGeometry x="-90" y="60" width="100" height="80" as="geometry"/>
                </mxCell>
                <mxCell id="5D2Kj8GLupfcrIQceNHM-18" value="Chapters" style="ellipse;whiteSpace=wrap;html=1;" vertex="1" parent="5D2Kj8GLupfcrIQceNHM-1">
                    <mxGeometry x="-30" y="-100" width="100" height="80" as="geometry"/>
                </mxCell>
                <mxCell id="5D2Kj8GLupfcrIQceNHM-19" value="Description" style="ellipse;whiteSpace=wrap;html=1;" vertex="1" parent="5D2Kj8GLupfcrIQceNHM-1">
                    <mxGeometry x="180" y="-170" width="100" height="80" as="geometry"/>
                </mxCell>
                <mxCell id="5D2Kj8GLupfcrIQceNHM-20" value="Year of publication" style="ellipse;whiteSpace=wrap;html=1;" vertex="1" parent="5D2Kj8GLupfcrIQceNHM-1">
                    <mxGeometry x="390" y="-90" width="100" height="80" as="geometry"/>
                </mxCell>
                <mxCell id="5D2Kj8GLupfcrIQceNHM-21" value="When bought" style="ellipse;whiteSpace=wrap;html=1;" vertex="1" parent="5D2Kj8GLupfcrIQceNHM-1">
                    <mxGeometry x="460" y="48" width="100" height="80" as="geometry"/>
                </mxCell>
                <mxCell id="5D2Kj8GLupfcrIQceNHM-27" value="Name" style="ellipse;whiteSpace=wrap;html=1;" vertex="1" parent="5D2Kj8GLupfcrIQceNHM-1">
                    <mxGeometry x="-30" y="290" width="100" height="80" as="geometry"/>
                </mxCell>
                <mxCell id="5D2Kj8GLupfcrIQceNHM-30" value="Nationality" style="ellipse;whiteSpace=wrap;html=1;" vertex="1" parent="5D2Kj8GLupfcrIQceNHM-1">
                    <mxGeometry x="330" y="340" width="100" height="80" as="geometry"/>
                </mxCell>
                <mxCell id="5D2Kj8GLupfcrIQceNHM-32" value="Id of Author" style="ellipse;whiteSpace=wrap;html=1;aspect=fixed;" vertex="1" parent="5D2Kj8GLupfcrIQceNHM-1">
                    <mxGeometry x="460" y="208" width="80" height="80" as="geometry"/>
                </mxCell>
            </root>
        </mxGraphModel>
    </diagram>
    <diagram id="k73U8PPViHUgP112qkDn" name="Page-3">
        <mxGraphModel dx="820" dy="575" grid="1" gridSize="10" guides="1" tooltips="1" connect="1" arrows="1" fold="1" page="1" pageScale="1" pageWidth="827" pageHeight="1169" math="0" shadow="0">
            <root>
                <mxCell id="6v1bysNWvRBCxezQkrqb-0"/>
                <mxCell id="6v1bysNWvRBCxezQkrqb-1" parent="6v1bysNWvRBCxezQkrqb-0"/>
                <mxCell id="6v1bysNWvRBCxezQkrqb-2" value="Book" style="swimlane;fontStyle=0;childLayout=stackLayout;horizontal=1;startSize=26;fillColor=none;horizontalStack=0;resizeParent=1;resizeParentMax=0;resizeLast=0;collapsible=1;marginBottom=0;" vertex="1" parent="6v1bysNWvRBCxezQkrqb-1">
                    <mxGeometry x="70" y="210" width="140" height="156" as="geometry"/>
                </mxCell>
                <mxCell id="6v1bysNWvRBCxezQkrqb-3" value="+ titel: string" style="text;strokeColor=none;fillColor=none;align=left;verticalAlign=top;spacingLeft=4;spacingRight=4;overflow=hidden;rotatable=0;points=[[0,0.5],[1,0.5]];portConstraint=eastwest;" vertex="1" parent="6v1bysNWvRBCxezQkrqb-2">
                    <mxGeometry y="26" width="140" height="26" as="geometry"/>
                </mxCell>
                <mxCell id="6v1bysNWvRBCxezQkrqb-4" value="+ description: string" style="text;strokeColor=none;fillColor=none;align=left;verticalAlign=top;spacingLeft=4;spacingRight=4;overflow=hidden;rotatable=0;points=[[0,0.5],[1,0.5]];portConstraint=eastwest;" vertex="1" parent="6v1bysNWvRBCxezQkrqb-2">
                    <mxGeometry y="52" width="140" height="26" as="geometry"/>
                </mxCell>
                <mxCell id="6v1bysNWvRBCxezQkrqb-5" value="+ chapters: int" style="text;strokeColor=none;fillColor=none;align=left;verticalAlign=top;spacingLeft=4;spacingRight=4;overflow=hidden;rotatable=0;points=[[0,0.5],[1,0.5]];portConstraint=eastwest;" vertex="1" parent="6v1bysNWvRBCxezQkrqb-2">
                    <mxGeometry y="78" width="140" height="26" as="geometry"/>
                </mxCell>
                <mxCell id="Atejo0sbMppId7Wcv1ki-0" value="+ YearOfPublication: int" style="text;strokeColor=none;fillColor=none;align=left;verticalAlign=top;spacingLeft=4;spacingRight=4;overflow=hidden;rotatable=0;points=[[0,0.5],[1,0.5]];portConstraint=eastwest;" vertex="1" parent="6v1bysNWvRBCxezQkrqb-2">
                    <mxGeometry y="104" width="140" height="26" as="geometry"/>
                </mxCell>
                <mxCell id="O0D1HXbApFnJO2Nx_82F-0" value="+ yearOfBought: int" style="text;strokeColor=none;fillColor=none;align=left;verticalAlign=top;spacingLeft=4;spacingRight=4;overflow=hidden;rotatable=0;points=[[0,0.5],[1,0.5]];portConstraint=eastwest;" vertex="1" parent="6v1bysNWvRBCxezQkrqb-2">
                    <mxGeometry y="130" width="140" height="26" as="geometry"/>
                </mxCell>
                <mxCell id="6v1bysNWvRBCxezQkrqb-6" value="Author" style="swimlane;fontStyle=0;childLayout=stackLayout;horizontal=1;startSize=26;fillColor=none;horizontalStack=0;resizeParent=1;resizeParentMax=0;resizeLast=0;collapsible=1;marginBottom=0;" vertex="1" parent="6v1bysNWvRBCxezQkrqb-1">
                    <mxGeometry x="300" y="210" width="140" height="104" as="geometry"/>
                </mxCell>
                <mxCell id="6v1bysNWvRBCxezQkrqb-7" value="+ lName: string" style="text;strokeColor=none;fillColor=none;align=left;verticalAlign=top;spacingLeft=4;spacingRight=4;overflow=hidden;rotatable=0;points=[[0,0.5],[1,0.5]];portConstraint=eastwest;" vertex="1" parent="6v1bysNWvRBCxezQkrqb-6">
                    <mxGeometry y="26" width="140" height="26" as="geometry"/>
                </mxCell>
                <mxCell id="6v1bysNWvRBCxezQkrqb-8" value="+ author_id: it" style="text;strokeColor=none;fillColor=none;align=left;verticalAlign=top;spacingLeft=4;spacingRight=4;overflow=hidden;rotatable=0;points=[[0,0.5],[1,0.5]];portConstraint=eastwest;" vertex="1" parent="6v1bysNWvRBCxezQkrqb-6">
                    <mxGeometry y="52" width="140" height="26" as="geometry"/>
                </mxCell>
                <mxCell id="6v1bysNWvRBCxezQkrqb-9" value="+ nationality: string" style="text;strokeColor=none;fillColor=none;align=left;verticalAlign=top;spacingLeft=4;spacingRight=4;overflow=hidden;rotatable=0;points=[[0,0.5],[1,0.5]];portConstraint=eastwest;" vertex="1" parent="6v1bysNWvRBCxezQkrqb-6">
                    <mxGeometry y="78" width="140" height="26" as="geometry"/>
                </mxCell>
                <mxCell id="6v1bysNWvRBCxezQkrqb-10" value="Genre" style="swimlane;fontStyle=0;childLayout=stackLayout;horizontal=1;startSize=26;fillColor=none;horizontalStack=0;resizeParent=1;resizeParentMax=0;resizeLast=0;collapsible=1;marginBottom=0;" vertex="1" parent="6v1bysNWvRBCxezQkrqb-1">
                    <mxGeometry x="540" y="210" width="140" height="104" as="geometry"/>
                </mxCell>
                <mxCell id="6v1bysNWvRBCxezQkrqb-11" value="+ field: type" style="text;strokeColor=none;fillColor=none;align=left;verticalAlign=top;spacingLeft=4;spacingRight=4;overflow=hidden;rotatable=0;points=[[0,0.5],[1,0.5]];portConstraint=eastwest;" vertex="1" parent="6v1bysNWvRBCxezQkrqb-10">
                    <mxGeometry y="26" width="140" height="26" as="geometry"/>
                </mxCell>
                <mxCell id="6v1bysNWvRBCxezQkrqb-12" value="+ field: type" style="text;strokeColor=none;fillColor=none;align=left;verticalAlign=top;spacingLeft=4;spacingRight=4;overflow=hidden;rotatable=0;points=[[0,0.5],[1,0.5]];portConstraint=eastwest;" vertex="1" parent="6v1bysNWvRBCxezQkrqb-10">
                    <mxGeometry y="52" width="140" height="26" as="geometry"/>
                </mxCell>
                <mxCell id="6v1bysNWvRBCxezQkrqb-13" value="+ field: type" style="text;strokeColor=none;fillColor=none;align=left;verticalAlign=top;spacingLeft=4;spacingRight=4;overflow=hidden;rotatable=0;points=[[0,0.5],[1,0.5]];portConstraint=eastwest;" vertex="1" parent="6v1bysNWvRBCxezQkrqb-10">
                    <mxGeometry y="78" width="140" height="26" as="geometry"/>
                </mxCell>
            </root>
        </mxGraphModel>
    </diagram>
</mxfile>